<svg classname'twitter-footer' viewBox="0 0 24 24" fill="none" xmlns="http://www.w3.org/2000/svg">
<path d="M23.953 2.85805C23.068 3.33665 22.1231 3.66268 21.1281 3.81155C22.1421 3.05982 22.922 1.87502 23.291 0.461373C22.3401 1.1442 21.2861 1.64126 20.1642 1.91808C19.2682 0.738197 17.9912 0 16.5733 0C13.8564 0 11.6535 2.71041 11.6535 6.04952C11.6535 6.52935 11.6985 6.99072 11.7805 7.43241C7.69068 7.19495 4.06583 4.77859 1.63993 1.12575C1.21295 2.01405 0.973959 3.04629 0.973959 4.17081C0.973959 6.27467 1.84392 8.12385 3.16187 9.21023C2.3549 9.17824 1.59593 8.90511 0.933961 8.45235V8.5274C0.933961 11.4617 2.62689 13.9089 4.8798 14.4662C4.46681 14.6028 4.03083 14.6766 3.58385 14.6766C3.26986 14.6766 2.96888 14.6397 2.66789 14.5708C3.29886 16.9736 5.11279 18.7256 7.2717 18.7748C5.59177 20.3976 3.46286 21.3646 1.16995 21.3646C0.779967 21.3646 0.390984 21.3363 0 21.2822C2.18891 22.9973 4.7678 24 7.55669 24C16.6103 24 21.5551 14.7775 21.5551 6.79264C21.5551 6.5355 21.5551 6.2759 21.5401 6.01753C22.5011 5.16984 23.34 4.09822 24 2.88266L23.953 2.85805Z" fill="#0FACF3"/>
</svg>
